<svg id="clear" xmlns="http://www.w3.org/2000/svg" width="30" height="30" viewBox="0 0 30 30">
                            <path id="Path_9" data-name="Path 9" d="M0,0H30V30H0Z" fill="none" />
                            <path id="Path_10" data-name="Path 10" d="M0,0H30V30H0Z" fill="none" />
                            <path id="Path_11" data-name="Path 11"
                                d="M6.429,24.333A2.775,2.775,0,0,0,9.286,27H20.714a2.775,2.775,0,0,0,2.857-2.667v-16H6.429ZM9.943,14.84l2.014-1.88L15,15.787l3.029-2.827,2.014,1.88-3.029,2.827,3.029,2.827-2.014,1.88L15,19.547l-3.029,2.827-2.014-1.88,3.029-2.827ZM20,4.333,18.571,3H11.429L10,4.333H5V7H25V4.333Z"
                                transform="translate(0 0)" fill="#c3a9ff" />
                        </svg>