<svg xmlns="http://www.w3.org/2000/svg" width="15.323" height="12.257" viewBox="0 0 15.323 12.257">
  <path id="code" d="M6.653,12.282l-1.46-.424A.288.288,0,0,1,5,11.5L8.264.245a.288.288,0,0,1,.357-.2l1.46.424a.288.288,0,0,1,.2.357L7.009,12.086A.287.287,0,0,1,6.653,12.282ZM3.923,9.6,4.965,8.485a.287.287,0,0,0-.019-.412L2.777,6.165,4.946,4.257a.285.285,0,0,0,.019-.412L3.923,2.734a.288.288,0,0,0-.407-.012L.067,5.954a.285.285,0,0,0,0,.419l3.45,3.234A.285.285,0,0,0,3.923,9.6Zm7.833.014,3.45-3.234a.285.285,0,0,0,0-.419L11.757,2.72a.29.29,0,0,0-.407.012L10.308,3.843a.287.287,0,0,0,.019.412L12.5,6.165,10.328,8.073a.285.285,0,0,0-.019.412L11.35,9.6a.288.288,0,0,0,.407.014Z" transform="translate(0.025 -0.037)" fill="#161a1d"/>
</svg>
